<?xml version="1.0" encoding="UTF-8" standalone="no" ?>
<!DOCTYPE svg PUBLIC "-//W3C//DTD SVG 1.1//EN" "http://www.w3.org/Graphics/SVG/1.1/DTD/svg11.dtd">
<svg xmlns="http://www.w3.org/2000/svg" xmlns:xlink="http://www.w3.org/1999/xlink" version="1.1" width="1280" height="1024" viewBox="0 0 1280 1024" xml:space="preserve">
<desc>Created with Fabric.js 5.3.0</desc>
<defs>
</defs>
<g transform="matrix(1 0 0 1 640 512)" id="background-logo"  >
<rect style="stroke: none; stroke-width: 0; stroke-dasharray: none; stroke-linecap: butt; stroke-dashoffset: 0; stroke-linejoin: miter; stroke-miterlimit: 4; fill: rgb(14,2,25); fill-rule: nonzero; opacity: 1;"  paint-order="stroke"  x="-640" y="-512" rx="0" ry="0" width="1280" height="1024" />
</g>
<g transform="matrix(1.9211538461538462 0 0 1.9211538461538462 640 411.72985562219355)" id="logo-logo"  >
<g style=""  paint-order="stroke"   >
		<g transform="matrix(0.5818320011912118 0 0 0.5818320011912117 0 0)"  >
<radialGradient id="SVGID_2_623824" gradientUnits="userSpaceOnUse" gradientTransform="matrix(1 0 0 1 0 0)"  cx="149.6357" cy="150.4043" r="145.3064" fx="149.6357" fy="150.4043">
<stop offset="30%" style="stop-color:rgb(35,6,53);stop-opacity: 1"/>
<stop offset="36.74%" style="stop-color:rgb(44,10,58);stop-opacity: 1"/>
<stop offset="47.73%" style="stop-color:rgb(68,21,70);stop-opacity: 1"/>
<stop offset="61.62%" style="stop-color:rgb(108,40,91);stop-opacity: 1"/>
<stop offset="77.85%" style="stop-color:rgb(163,65,119);stop-opacity: 1"/>
<stop offset="95.85000000000001%" style="stop-color:rgb(233,97,155);stop-opacity: 1"/>
<stop offset="100%" style="stop-color:rgb(250,105,164);stop-opacity: 1"/>
</radialGradient>
<path style="stroke: none; stroke-width: 1; stroke-dasharray: none; stroke-linecap: butt; stroke-dashoffset: 0; stroke-linejoin: miter; stroke-miterlimit: 4; fill: url(#SVGID_2_623824); fill-rule: nonzero; opacity: 1;"  paint-order="stroke"  transform=" translate(-149.6, -150.39999999999998)" d="M 294.9 150.4 C 294.9 134.3 269.5 121.2 238.2 121.2 C 206.89999999999998 121.2 181.5 134.3 181.5 150.4 C 181.5 166.5 206.9 179.6 238.2 179.6 C 269.5 179.6 294.9 166.5 294.9 150.4 L 294.9 150.4 z M 283.9 94.8 C 277.7 79.89999999999999 249.29999999999998 77.6 220.29999999999998 89.5 C 191.29999999999998 101.4 172.89999999999998 123.3 179 138.2 C 185.2 153.1 213.6 155.39999999999998 242.6 143.5 C 271.6 131.5 290.1 109.7 283.9 94.8 L 283.9 94.8 z M 4.3 150.4 C 4.3 166.5 29.7 179.6 61 179.6 C 92.3 179.6 117.7 166.5 117.7 150.4 C 117.7 134.3 92.30000000000001 121.2 61 121.2 C 29.69999999999999 121.2 4.3 134.3 4.3 150.4 L 4.3 150.4 z M 149.6 295.7 C 165.7 295.7 178.79999999999998 270.3 178.79999999999998 239 C 178.79999999999998 207.7 165.7 182.3 149.6 182.3 C 133.5 182.3 120.39999999999999 207.70000000000002 120.39999999999999 239 C 120.39999999999999 270.29999999999995 133.5 295.7 149.6 295.7 L 149.6 295.7 z M 149.6 5.1 C 133.5 5.1 120.39999999999999 30.5 120.39999999999999 61.800000000000004 C 120.39999999999999 93.10000000000001 133.5 118.5 149.6 118.5 C 165.7 118.5 178.79999999999998 93.1 178.79999999999998 61.8 C 178.79999999999998 30.5 165.8 5.1 149.6 5.1 L 149.6 5.1 z M 205.2 284.6 C 220.1 278.40000000000003 222.39999999999998 250.00000000000003 210.5 221.00000000000003 C 198.5 192.00000000000003 176.7 173.60000000000002 161.8 179.70000000000005 C 146.9 185.90000000000003 144.60000000000002 214.30000000000004 156.5 243.30000000000004 C 168.6 272.4 190.3 290.8 205.2 284.6 L 205.2 284.6 z M 94 16.2 C 79.1 22.4 76.8 50.8 88.7 79.8 C 100.60000000000001 108.8 122.5 127.19999999999999 137.4 121.1 C 152.3 114.89999999999999 154.6 86.5 142.70000000000002 57.49999999999999 C 130.7 28.5 108.9 10 94 16.2 L 94 16.2 z M 252.4 253.2 C 263.8 241.79999999999998 255.1 214.6 232.9 192.39999999999998 C 210.70000000000002 170.19999999999996 183.5 161.49999999999997 172.10000000000002 172.89999999999998 C 160.70000000000002 184.29999999999998 169.40000000000003 211.49999999999997 191.60000000000002 233.7 C 213.8 255.9 241 264.6 252.4 253.2 L 252.4 253.2 z M 46.9 47.7 C 35.5 59.1 44.199999999999996 86.30000000000001 66.4 108.5 C 88.60000000000002 130.7 115.80000000000001 139.4 127.2 128 C 138.6 116.6 129.9 89.4 107.7 67.2 C 85.5 45 58.3 36.3 46.9 47.7 L 46.9 47.7 z M 283.9 206 C 290.09999999999997 191.1 271.59999999999997 169.3 242.59999999999997 157.3 C 213.59999999999997 145.3 185.19999999999996 147.70000000000002 178.99999999999997 162.60000000000002 C 172.79999999999998 177.50000000000003 191.29999999999998 199.3 220.29999999999995 211.3 C 249.2 223.3 277.7 220.9 283.9 206 L 283.9 206 z M 15.4 94.8 C 9.2 109.7 27.700000000000003 131.5 56.699999999999996 143.5 C 85.69999999999999 155.5 114.1 153.1 120.3 138.2 C 126.5 123.29999999999998 108 101.49999999999999 79 89.49999999999999 C 50 77.49999999999999 21.6 79.9 15.4 94.8 L 15.4 94.8 z M 15.4 206 C 21.6 220.9 50 223.2 79 211.3 C 108 199.3 126.4 177.5 120.3 162.60000000000002 C 114.1 147.70000000000002 85.69999999999999 145.40000000000003 56.699999999999996 157.3 C 27.700000000000003 169.2 9.2 191.1 15.4 206 L 15.4 206 z M 252.4 47.7 C 241 36.3 213.8 45 191.6 67.1 C 185 73.69999999999999 179.7 80.69999999999999 175.6 87.5 C 173.79999999999998 94.5 171.2 100.7 168.1 105.6 C 166 114.8 167.1 122.8 172.1 127.8 C 183.5 139.2 210.7 130.5 232.89999999999998 108.3 C 255.09999999999997 86.1 263.8 59.1 252.4 47.7 z M 127.1 172.9 C 115.69999999999999 161.5 88.5 170.20000000000002 66.3 192.4 C 44.099999999999994 214.6 35.4 241.8 46.8 253.2 C 58.199999999999996 264.59999999999997 85.4 255.89999999999998 107.6 233.7 C 114.19999999999999 227.1 119.5 220.2 123.6 213.29999999999998 C 123.6 213.29999999999998 123.6 213.29999999999998 123.6 213.29999999999998 C 123.69999999999999 212.89999999999998 123.8 212.39999999999998 123.89999999999999 211.99999999999997 C 123.89999999999999 211.99999999999997 123.89999999999999 211.99999999999997 123.89999999999999 211.99999999999997 C 124.3 210.69999999999996 124.6 209.39999999999998 125.1 208.19999999999996 C 125.6 206.59999999999997 126.19999999999999 204.99999999999997 126.89999999999999 203.49999999999997 C 127.1 203.09999999999997 127.19999999999999 202.69999999999996 127.39999999999999 202.39999999999998 C 128.5 199.79999999999998 129.79999999999998 197.39999999999998 131.1 195.2 C 131.1 195.2 131.1 195.2 131.1 195.2 L 131.1 195.2 C 133.3 185.8 132.1 177.9 127.1 172.9 z M 145.5 19.2 C 149.8 19.2 154.7 23.7 158.5 31.2 C 163.3 40.6 166.1 53.8 166.1 67.4 C 166.1 81.00000000000001 163.29999999999998 94.2 158.5 103.60000000000001 C 154.6 111.10000000000001 149.8 115.60000000000001 145.5 115.60000000000001 C 141.2 115.60000000000001 136.3 111.10000000000001 132.5 103.60000000000001 C 127.7 94.2 124.9 81 124.9 67.4 C 124.9 53.80000000000001 127.7 40.60000000000001 132.5 31.200000000000003 C 136.3 23.7 141.2 19.2 145.5 19.2 M 95.6 30.8 C 99.6 29.2 105.8 31.400000000000002 112.19999999999999 36.9 C 120.29999999999998 43.699999999999996 127.89999999999999 54.9 133.1 67.4 C 138.29999999999998 80 140.79999999999998 93.2 139.9 103.80000000000001 C 139.20000000000002 112.20000000000002 136.4 118.20000000000002 132.4 119.80000000000001 C 128.4 121.4 122.2 119.20000000000002 115.80000000000001 113.70000000000002 C 107.70000000000002 106.90000000000002 100.10000000000001 95.70000000000002 94.9 83.20000000000002 C 89.7 70.60000000000002 87.2 57.40000000000002 88.10000000000001 46.80000000000002 C 88.8 38.4 91.6 32.4 95.6 30.8 M 53.9 60.6 C 56.9 57.6 63.5 57.300000000000004 71.6 59.9 C 81.69999999999999 63.1 92.89999999999999 70.5 102.6 80.1 C 112.3 89.69999999999999 119.6 101 122.8 111.1 C 125.39999999999999 119.1 125.1 125.69999999999999 122.1 128.79999999999998 C 119.1 131.79999999999998 112.5 132.1 104.39999999999999 129.49999999999997 C 94.3 126.29999999999997 83.1 118.89999999999998 73.39999999999999 109.29999999999997 C 63.69999999999999 99.69999999999996 56.39999999999999 88.39999999999998 53.19999999999999 78.29999999999997 C 50.6 70.2 50.9 63.6 53.9 60.6 M 26.8 104 C 28.400000000000002 100 34.4 97.2 42.8 96.5 C 53.3 95.6 66.6 98.1 79.19999999999999 103.3 C 91.79999999999998 108.5 102.89999999999999 116.1 109.69999999999999 124.19999999999999 C 115.19999999999999 130.6 117.39999999999999 136.79999999999998 115.79999999999998 140.79999999999998 C 114.19999999999999 144.79999999999998 108.19999999999999 147.6 99.79999999999998 148.29999999999998 C 89.29999999999998 149.2 75.99999999999999 146.7 63.399999999999984 141.49999999999997 C 50.79999999999998 136.29999999999998 39.69999999999999 128.69999999999996 32.899999999999984 120.59999999999997 C 27.4 114.2 25.2 108 26.8 104 M 280.8 146.3 C 280.8 150.60000000000002 276.3 155.5 268.8 159.3 C 259.40000000000003 164.10000000000002 246.20000000000002 166.9 232.60000000000002 166.9 C 219.00000000000003 166.9 205.8 164.1 196.40000000000003 159.3 C 188.90000000000003 155.4 184.40000000000003 150.60000000000002 184.40000000000003 146.3 C 184.40000000000003 142 188.90000000000003 137.10000000000002 196.40000000000003 133.3 C 205.80000000000004 128.5 219.00000000000003 125.70000000000002 232.60000000000002 125.70000000000002 C 246.20000000000002 125.70000000000002 259.40000000000003 128.50000000000003 268.8 133.3 C 276.4 137.1 280.8 142 280.8 146.3 M 269.3 96.4 C 270.90000000000003 100.4 268.7 106.60000000000001 263.2 113 C 256.4 121.1 245.2 128.7 232.7 133.9 C 220.1 139.1 206.89999999999998 141.6 196.29999999999998 140.70000000000002 C 187.89999999999998 140.00000000000003 181.89999999999998 137.20000000000002 180.29999999999998 133.20000000000002 C 178.7 129.20000000000002 180.89999999999998 123.00000000000001 186.39999999999998 116.60000000000002 C 193.2 108.50000000000003 204.39999999999998 100.90000000000002 216.89999999999998 95.70000000000002 C 229.49999999999997 90.50000000000001 242.7 88.00000000000001 253.29999999999998 88.90000000000002 C 261.6 89.6 267.6 92.4 269.3 96.4 M 240.2 72.4 C 237 82.5 229.6 93.7 220 103.4 C 210.4 113 199.1 120.4 189 123.60000000000001 C 181 126.2 174.4 125.9 171.3 122.9 C 168.3 119.9 168 113.30000000000001 170.60000000000002 105.2 C 173.8 95.10000000000001 181.20000000000002 83.9 190.8 74.2 C 200.4 64.5 211.70000000000002 57.2 221.8 54 C 229.8 51.4 236.4 51.7 239.5 54.7 C 242.5 57.7 242.8 64.3 240.2 72.4 z M 153.8 281.6 C 149.5 281.6 144.60000000000002 277.1 140.8 269.6 C 136 260.20000000000005 133.20000000000002 247.00000000000003 133.20000000000002 233.40000000000003 C 133.20000000000002 219.80000000000004 136.00000000000003 206.60000000000002 140.8 197.20000000000005 C 144.70000000000002 189.70000000000005 149.5 185.20000000000005 153.8 185.20000000000005 C 158.10000000000002 185.20000000000005 163 189.70000000000005 166.8 197.20000000000005 C 171.60000000000002 206.60000000000005 174.4 219.80000000000004 174.4 233.40000000000003 C 174.4 247.00000000000003 171.6 260.20000000000005 166.8 269.6 C 163 277.1 158.1 281.6 153.8 281.6 M 203.7 270 C 199.7 271.6 193.5 269.4 187.1 263.9 C 179 257.09999999999997 171.4 245.89999999999998 166.2 233.39999999999998 C 161 220.79999999999998 158.5 207.59999999999997 159.39999999999998 196.99999999999997 C 160.09999999999997 188.59999999999997 162.89999999999998 182.59999999999997 166.89999999999998 180.99999999999997 C 170.89999999999998 179.39999999999998 177.09999999999997 181.59999999999997 183.49999999999997 187.09999999999997 C 191.59999999999997 193.89999999999998 199.19999999999996 205.09999999999997 204.39999999999998 217.59999999999997 C 209.59999999999997 230.19999999999996 212.09999999999997 243.39999999999998 211.2 253.99999999999997 C 210.4 262.4 207.7 268.4 203.7 270 M 245.4 240.3 C 242.4 243.3 235.8 243.60000000000002 227.70000000000002 241 C 217.60000000000002 237.8 206.4 230.4 196.70000000000002 220.8 C 187.00000000000003 211.20000000000002 179.70000000000002 199.9 176.50000000000003 189.8 C 173.90000000000003 181.8 174.20000000000002 175.20000000000002 177.20000000000002 172.10000000000002 C 180.20000000000002 169.10000000000002 186.8 168.8 194.9 171.40000000000003 C 205 174.60000000000002 216.20000000000002 182.00000000000003 225.9 191.60000000000002 C 235.6 201.20000000000002 242.9 212.50000000000003 246.1 222.60000000000002 C 248.7 230.6 248.4 237.2 245.4 240.3 M 272.4 196.8 C 270.79999999999995 200.8 264.79999999999995 203.60000000000002 256.4 204.3 C 245.89999999999998 205.20000000000002 232.59999999999997 202.70000000000002 219.99999999999997 197.5 C 207.39999999999998 192.3 196.29999999999998 184.7 189.49999999999997 176.6 C 183.99999999999997 170.2 181.79999999999998 164 183.39999999999998 160 C 184.99999999999997 156 190.99999999999997 153.2 199.39999999999998 152.5 C 209.89999999999998 151.6 223.2 154.1 235.79999999999998 159.3 C 248.39999999999998 164.5 259.5 172.10000000000002 266.29999999999995 180.20000000000002 C 271.8 186.6 274.1 192.8 272.4 196.8 M 18.4 154.6 C 18.4 150.29999999999998 22.9 145.4 30.4 141.6 C 39.8 136.79999999999998 53 134 66.6 134 C 80.19999999999999 134 93.39999999999999 136.8 102.8 141.6 C 110.3 145.5 114.8 150.29999999999998 114.8 154.6 C 114.8 158.9 110.3 163.79999999999998 102.8 167.6 C 93.39999999999999 172.4 80.19999999999999 175.2 66.6 175.2 C 53 175.2 39.8 172.39999999999998 30.39999999999999 167.6 C 22.9 163.7 18.4 158.9 18.4 154.6 M 30 204.5 C 28.4 200.5 30.6 194.3 36.1 187.9 C 42.9 179.8 54.1 172.20000000000002 66.6 167 C 79.19999999999999 161.8 92.39999999999999 159.3 103 160.2 C 111.4 160.89999999999998 117.4 163.7 119 167.7 C 120.6 171.7 118.4 177.89999999999998 112.9 184.29999999999998 C 106.10000000000001 192.39999999999998 94.9 199.99999999999997 82.4 205.2 C 69.80000000000001 210.39999999999998 56.60000000000001 212.89999999999998 46.00000000000001 212 C 37.6 211.2 31.6 208.4 30 204.5 M 108.4 226.6 C 98.80000000000001 236.2 87.5 243.6 77.4 246.79999999999998 C 69.4 249.39999999999998 62.800000000000004 249.1 59.7 246.1 C 56.7 243.1 56.400000000000006 236.5 59 228.4 C 62.2 218.3 69.6 207.1 79.2 197.4 C 88.8 187.8 100.1 180.4 110.2 177.20000000000002 C 118.2 174.60000000000002 124.8 174.9 127.9 177.9 C 130.9 180.9 131.20000000000002 187.5 128.6 195.6 C 125.4 205.7 118.1 217 108.4 226.6 z M 205.2 16.2 C 196 12.399999999999999 184.2 18 173.6 29.7 C 174.4 32 175.2 34.5 175.79999999999998 37 C 176.99999999999997 35.8 178.1 34.7 179.29999999999998 33.7 C 185.7 28.200000000000003 191.89999999999998 26.000000000000004 195.89999999999998 27.6 C 199.89999999999998 29.200000000000003 202.7 35.2 203.39999999999998 43.6 C 204.29999999999998 54.1 201.79999999999998 67.4 196.59999999999997 80 C 191.39999999999998 92.6 183.79999999999995 103.7 175.69999999999996 110.5 C 169.29999999999995 116 163.09999999999997 118.2 159.09999999999997 116.6 C 158.79999999999995 116.5 158.39999999999998 116.3 158.09999999999997 116.1 C 157.49999999999997 116.5 156.79999999999995 116.8 156.19999999999996 117.1 C 157.79999999999995 118.8 159.69999999999996 120.1 161.79999999999995 121 C 176.69999999999996 127.2 198.49999999999994 108.7 210.49999999999994 79.7 C 222.5 50.8 220.1 22.3 205.2 16.2 z M 158.5 64.2 C 160.3 59.800000000000004 162.5 55.5 164.8 51.6 C 164.4 49 163.8 46.4 163.20000000000002 44 C 160.8 48.2 158.50000000000003 52.7 156.50000000000003 57.5 C 153.00000000000003 66.1 150.70000000000002 74.6 149.60000000000002 82.5 L 149.60000000000002 82.5 C 149.8 84.3 150.00000000000003 86.1 150.20000000000002 87.9 C 150.3 89.2 150.3 90.5 150.4 91.7 C 150.4 94.60000000000001 150.3 97.3 150 99.9 C 150 99.9 150 99.9 150 99.9 C 149.9 100.60000000000001 149.8 101.4 149.7 102.10000000000001 C 149.7 102.10000000000001 149.7 102.10000000000001 149.7 102.10000000000001 C 150.29999999999998 105.80000000000001 151.29999999999998 109.10000000000001 152.7 111.9 C 153.1 111.5 153.5 111 153.89999999999998 110.60000000000001 C 152.79999999999998 107.9 151.99999999999997 104.50000000000001 151.7 100.60000000000001 C 150.8 90 153.3 76.8 158.5 64.2 z M 149.6 198.8 L 149.6 198.8 C 149 195.10000000000002 148 191.8 146.6 189 C 146.2 189.4 145.79999999999998 189.9 145.4 190.3 C 146.5 193 147.3 196.4 147.6 200.3 C 148.5 210.8 146 224.10000000000002 140.79999999999998 236.70000000000002 C 138.99999999999997 241.10000000000002 136.79999999999998 245.4 134.49999999999997 249.3 C 134.89999999999998 251.9 135.49999999999997 254.5 136.09999999999997 256.90000000000003 C 138.49999999999997 252.70000000000005 140.79999999999995 248.20000000000005 142.79999999999995 243.40000000000003 C 146.29999999999995 234.80000000000004 148.59999999999997 226.30000000000004 149.69999999999996 218.40000000000003 C 148.7 211.3 148.7 204.6 149.6 198.8 C 149.6 198.8 149.6 198.8 149.6 198.8 z M 124.2 266.7 C 124 266.09999999999997 123.8 265.5 123.7 264.8 C 123.7 264.8 123.7 264.8 123.7 264.8 C 123.60000000000001 264.5 123.5 264.2 123.5 263.8 L 123.5 263.8 C 122.3 265 121.2 266.1 120 267.1 C 113.6 272.6 107.4 274.8 103.4 273.20000000000005 C 99.4 271.6 96.60000000000001 265.6 95.9 257.20000000000005 C 95 246.70000000000005 97.5 233.40000000000003 102.7 220.80000000000004 C 107.9 208.20000000000005 115.5 197.10000000000005 123.6 190.30000000000004 C 130 184.80000000000004 136.2 182.60000000000005 140.2 184.20000000000005 C 140.5 184.30000000000004 140.89999999999998 184.50000000000006 141.2 184.70000000000005 L 141.2 184.70000000000005 C 141.29999999999998 184.70000000000005 141.29999999999998 184.60000000000005 141.39999999999998 184.60000000000005 C 141.59999999999997 184.50000000000006 141.89999999999998 184.30000000000004 142.09999999999997 184.20000000000005 C 142.39999999999998 184.00000000000006 142.79999999999995 183.90000000000003 143.09999999999997 183.70000000000005 C 142.29999999999995 182.90000000000003 141.49999999999997 182.10000000000005 140.49999999999997 181.50000000000006 L 140.49999999999997 181.50000000000006 C 139.59999999999997 180.80000000000007 138.59999999999997 180.30000000000007 137.49999999999997 179.90000000000006 C 136.79999999999998 179.60000000000005 135.99999999999997 179.40000000000006 135.29999999999998 179.20000000000007 C 134.99999999999997 179.10000000000008 134.79999999999998 179.10000000000008 134.49999999999997 179.00000000000009 C 134.19999999999996 179.00000000000009 133.99999999999997 178.9000000000001 133.69999999999996 178.9000000000001 C 133.39999999999995 178.8000000000001 132.99999999999997 178.8000000000001 132.69999999999996 178.8000000000001 C 132.59999999999997 178.8000000000001 132.49999999999997 178.8000000000001 132.39999999999995 178.8000000000001 C 132.29999999999995 178.8000000000001 132.09999999999994 178.8000000000001 131.99999999999994 178.8000000000001 L 131.89999999999995 178.8000000000001 C 131.79999999999995 178.8000000000001 131.69999999999996 178.8000000000001 131.69999999999996 178.8000000000001 L 131.49999999999997 178.8000000000001 C 131.29999999999998 178.8000000000001 131.19999999999996 178.8000000000001 130.99999999999997 178.8000000000001 L 130.79999999999998 178.8000000000001 C 130.7 178.8000000000001 130.7 178.8000000000001 130.6 178.8000000000001 C 130.5 178.8000000000001 130.4 178.8000000000001 130.4 178.8000000000001 C 130.3 178.8000000000001 130.20000000000002 178.8000000000001 130.20000000000002 178.8000000000001 C 130.00000000000003 178.8000000000001 129.9 178.8000000000001 129.70000000000002 178.8000000000001 C 129.70000000000002 178.8000000000001 129.60000000000002 178.8000000000001 129.60000000000002 178.8000000000001 C 129.60000000000002 178.8000000000001 129.50000000000003 178.8000000000001 129.50000000000003 178.8000000000001 C 129.40000000000003 178.8000000000001 129.40000000000003 178.8000000000001 129.30000000000004 178.8000000000001 C 129.20000000000005 178.8000000000001 129.00000000000003 178.8000000000001 128.90000000000003 178.9000000000001 C 128.70000000000005 178.9000000000001 128.50000000000003 179.00000000000009 128.40000000000003 179.00000000000009 L 128.40000000000003 179.00000000000009 C 128.40000000000003 179.00000000000009 128.30000000000004 179.00000000000009 128.30000000000004 179.00000000000009 C 128.30000000000004 179.00000000000009 128.20000000000005 179.00000000000009 128.20000000000005 179.00000000000009 L 128.20000000000005 179.00000000000009 C 128.00000000000006 179.00000000000009 127.80000000000004 179.10000000000008 127.60000000000005 179.10000000000008 C 127.40000000000005 179.10000000000008 127.20000000000005 179.20000000000007 127.00000000000006 179.20000000000007 C 126.60000000000005 179.30000000000007 126.20000000000006 179.40000000000006 125.90000000000006 179.50000000000009 C 125.30000000000007 179.70000000000007 124.80000000000007 179.8000000000001 124.20000000000006 180.10000000000008 C 123.60000000000007 180.30000000000007 123.00000000000006 180.50000000000009 122.50000000000006 180.80000000000007 C 122.30000000000005 180.90000000000006 122.10000000000005 181.00000000000006 122.00000000000006 181.00000000000006 C 121.60000000000005 181.20000000000005 121.30000000000005 181.30000000000007 120.90000000000006 181.50000000000006 C 120.70000000000006 181.60000000000005 120.50000000000006 181.70000000000005 120.40000000000006 181.80000000000007 C 120.20000000000006 181.90000000000006 120.00000000000006 182.00000000000006 119.90000000000006 182.10000000000008 C 119.50000000000006 182.30000000000007 119.20000000000006 182.50000000000009 118.80000000000007 182.70000000000007 C 118.60000000000007 182.80000000000007 118.40000000000006 182.90000000000006 118.30000000000007 183.00000000000009 C 117.80000000000007 183.3000000000001 117.30000000000007 183.60000000000008 116.90000000000006 183.9000000000001 C 116.60000000000007 184.10000000000008 116.20000000000006 184.4000000000001 115.90000000000006 184.60000000000008 C 115.60000000000007 184.80000000000007 115.30000000000007 185.00000000000009 115.00000000000006 185.20000000000007 C 114.60000000000005 185.50000000000009 114.20000000000006 185.80000000000007 113.70000000000006 186.20000000000007 C 113.10000000000007 186.70000000000007 112.40000000000006 187.20000000000007 111.80000000000005 187.80000000000007 C 111.60000000000005 188.00000000000006 111.30000000000005 188.20000000000007 111.10000000000005 188.40000000000006 C 110.40000000000005 189.00000000000006 109.70000000000005 189.70000000000007 109.00000000000006 190.40000000000006 C 107.80000000000005 191.60000000000005 106.60000000000005 192.80000000000007 105.50000000000006 194.10000000000005 C 105.00000000000006 194.60000000000005 104.60000000000005 195.20000000000005 104.10000000000005 195.70000000000005 C 103.90000000000005 196.00000000000006 103.60000000000005 196.30000000000004 103.40000000000005 196.50000000000006 C 103.00000000000004 197.10000000000005 102.50000000000004 197.60000000000005 102.10000000000005 198.20000000000005 C 101.70000000000005 198.80000000000004 101.20000000000005 199.40000000000003 100.80000000000005 200.00000000000006 C 100.40000000000005 200.60000000000005 99.90000000000005 201.20000000000005 99.50000000000006 201.80000000000007 C 98.90000000000006 202.70000000000007 98.20000000000006 203.70000000000007 97.60000000000005 204.70000000000007 L 97.60000000000005 204.70000000000007 C 97.20000000000005 205.40000000000006 96.80000000000005 206.00000000000009 96.40000000000005 206.70000000000007 C 96.20000000000005 207.00000000000009 96.00000000000004 207.40000000000006 95.80000000000005 207.70000000000007 C 95.60000000000005 208.10000000000008 95.30000000000005 208.50000000000009 95.10000000000005 208.90000000000006 C 94.90000000000005 209.20000000000007 94.80000000000005 209.50000000000006 94.60000000000005 209.70000000000007 C 94.40000000000005 210.10000000000008 94.20000000000005 210.40000000000006 94.00000000000006 210.80000000000007 L 94.00000000000006 210.80000000000007 C 93.60000000000005 211.50000000000006 93.20000000000006 212.20000000000007 92.90000000000006 213.00000000000006 C 92.90000000000006 213.00000000000006 92.90000000000006 213.00000000000006 92.90000000000006 213.00000000000006 C 92.50000000000006 213.70000000000005 92.20000000000006 214.50000000000006 91.80000000000007 215.20000000000005 C 91.60000000000007 215.60000000000005 91.40000000000006 215.90000000000003 91.30000000000007 216.30000000000004 C 91.10000000000007 216.70000000000005 90.90000000000006 217.10000000000005 90.80000000000007 217.40000000000003 C 90.30000000000007 218.50000000000003 89.80000000000007 219.70000000000005 89.30000000000007 220.90000000000003 C 88.90000000000006 221.90000000000003 88.50000000000007 222.90000000000003 88.10000000000007 224.00000000000003 C 87.80000000000007 224.70000000000002 87.60000000000007 225.40000000000003 87.40000000000006 226.00000000000003 C 86.70000000000006 228.00000000000003 86.00000000000006 230.10000000000002 85.40000000000006 232.10000000000002 C 85.30000000000007 232.40000000000003 85.20000000000006 232.8 85.10000000000007 233.10000000000002 C 84.90000000000006 233.8 84.70000000000006 234.40000000000003 84.60000000000007 235.10000000000002 C 84.40000000000006 235.8 84.30000000000007 236.40000000000003 84.10000000000007 237.10000000000002 C 84.00000000000007 237.50000000000003 83.90000000000006 237.90000000000003 83.80000000000007 238.20000000000002 C 83.60000000000007 238.9 83.50000000000007 239.70000000000002 83.30000000000007 240.4 C 83.30000000000007 240.4 83.30000000000007 240.4 83.30000000000007 240.4 C 82.90000000000006 242.20000000000002 82.60000000000007 244.1 82.40000000000006 245.9 C 82.40000000000006 245.9 82.40000000000006 245.9 82.40000000000006 245.9 C 82.30000000000007 246.6 82.20000000000006 247.3 82.10000000000007 248 C 81.20000000000006 255.7 81.60000000000007 262.8 83.00000000000007 268.7 C 83.10000000000007 269 83.10000000000007 269.2 83.20000000000007 269.5 C 83.30000000000007 269.9 83.40000000000008 270.4 83.60000000000008 270.8 C 83.70000000000007 271.1 83.80000000000008 271.3 83.80000000000008 271.5 C 83.90000000000008 271.7 84.00000000000009 272 84.10000000000008 272.2 C 84.10000000000008 272.3 84.20000000000007 272.4 84.20000000000007 272.5 C 84.40000000000008 272.9 84.50000000000007 273.4 84.70000000000007 273.8 C 85.00000000000007 274.6 85.40000000000008 275.3 85.80000000000007 276 C 85.90000000000006 276.2 86.00000000000007 276.5 86.20000000000007 276.7 C 86.50000000000007 277.3 86.90000000000008 277.9 87.30000000000007 278.4 C 87.60000000000007 278.79999999999995 87.80000000000007 279.09999999999997 88.10000000000007 279.5 C 89.90000000000006 281.7 92.10000000000007 283.4 94.60000000000007 284.4 C 94.70000000000006 284.5 94.90000000000006 284.5 95.00000000000007 284.59999999999997 C 95.10000000000007 284.59999999999997 95.30000000000007 284.7 95.40000000000008 284.7 C 95.90000000000008 284.9 96.40000000000008 285 96.90000000000008 285.09999999999997 C 97.00000000000007 285.09999999999997 97.10000000000008 285.2 97.20000000000007 285.2 C 97.30000000000007 285.2 97.40000000000008 285.3 97.60000000000008 285.3 C 97.70000000000007 285.3 97.80000000000008 285.3 97.90000000000008 285.40000000000003 C 106.50000000000007 286.90000000000003 116.90000000000008 281.3 126.20000000000007 271.00000000000006 L 126.20000000000007 271.00000000000006 C 126.00000000000007 270.40000000000003 125.80000000000007 269.80000000000007 125.60000000000008 269.20000000000005 C 124.7 268.5 124.4 267.6 124.2 266.7 z" stroke-linecap="round" />
</g>
		<g transform="matrix(0.5818320011912118 0 0 0.5818320011912117 0 0)"  >
<radialGradient id="SVGID_3_623825" gradientUnits="userSpaceOnUse" gradientTransform="matrix(1 0 0 1 0 0)"  cx="149.6357" cy="150.4043" r="145.3065" fx="149.6357" fy="150.4043">
<stop offset="12.61%" style="stop-color:rgb(84,24,112);stop-opacity: 1"/>
<stop offset="75.56%" style="stop-color:rgb(250,105,164);stop-opacity: 1"/>
<stop offset="78.4%" style="stop-color:rgb(241,101,161);stop-opacity: 1"/>
<stop offset="83.04%" style="stop-color:rgb(217,89,154);stop-opacity: 1"/>
<stop offset="88.9%" style="stop-color:rgb(177,69,141);stop-opacity: 1"/>
<stop offset="95.67999999999999%" style="stop-color:rgb(123,43,124);stop-opacity: 1"/>
<stop offset="100%" style="stop-color:rgb(84,24,112);stop-opacity: 1"/>
</radialGradient>
<path style="stroke: none; stroke-width: 1; stroke-dasharray: none; stroke-linecap: butt; stroke-dashoffset: 0; stroke-linejoin: miter; stroke-miterlimit: 4; fill: url(#SVGID_3_623825); fill-rule: nonzero; opacity: 1;"  paint-order="stroke"  transform=" translate(-149.6, -150.39999999999998)" d="M 149.6 295.7 C 150.7 295.7 151.9 295.59999999999997 153 295.3 C 138.5 292 127.2 268 127.2 238.9 C 127.2 209.8 138.5 185.8 153 182.5 C 151.9 182.3 150.8 182.1 149.6 182.1 C 133.5 182.1 120.39999999999999 207.5 120.39999999999999 238.8 C 120.39999999999999 270.1 133.5 295.7 149.6 295.7 z M 126.9 203.4 C 126.30000000000001 204.9 125.7 206.5 125.10000000000001 208.1 C 125.7 206.5 126.3 204.9 126.9 203.4 z M 125.1 208.1 C 124.69999999999999 209.29999999999998 124.3 210.6 123.89999999999999 211.9 C 124.3 210.6 124.7 209.4 125.1 208.1 z M 122.9 216.2 C 123.10000000000001 215.2 123.4 214.2 123.60000000000001 213.29999999999998 C 123.7 212.89999999999998 123.80000000000001 212.39999999999998 123.9 211.99999999999997 C 123.80000000000001 212.39999999999998 123.7 212.89999999999998 123.5 213.29999999999998 C 123.4 214.2 123.1 215.2 122.9 216.2 z M 122.9 216.2 C 122.30000000000001 218.7 121.9 221.29999999999998 121.5 223.89999999999998 C 121.9 221.2 122.3 218.7 122.9 216.2 z M 121 250.2 C 120.6 246.6 120.4 242.79999999999998 120.4 239 C 120.4 233.8 120.80000000000001 228.7 121.4 223.9 C 120.7 228.70000000000002 120.4 233.70000000000002 120.4 239 C 120.4 242.8 120.6 246.5 121 250.2 z M 121.4 253.1 C 121.30000000000001 252.1 121.2 251.2 121.10000000000001 250.2 C 121.1 251.1 121.2 252.1 121.4 253.1 z M 149.6 5.1 C 148.5 5.1 147.29999999999998 5.199999999999999 146.2 5.5 C 160.8 8.7 172 32.7 172 61.8 C 172 90.89999999999999 160.7 114.9 146.2 118.19999999999999 C 147.29999999999998 118.39999999999999 148.39999999999998 118.6 149.6 118.6 C 165.7 118.6 178.79999999999998 93.19999999999999 178.79999999999998 61.89999999999999 C 178.79999999999998 30.599999999999994 165.8 5.1 149.6 5.1 z M 205.2 284.6 C 206.29999999999998 284.20000000000005 207.29999999999998 283.6 208.2 283 C 193.5 285.5 173.89999999999998 267.7 162.79999999999998 240.8 C 151.7 213.90000000000003 152.89999999999998 187.4 165.1 178.9 C 164 179.1 162.9 179.4 161.79999999999998 179.8 C 146.89999999999998 186 144.6 214.4 156.49999999999997 243.4 C 168.39999999999995 272.4 190.3 290.8 205.2 284.6 z M 94 16.2 C 92.9 16.599999999999998 91.9 17.2 91 17.8 C 105.7 15.3 125.3 33.1 136.4 60 C 147.5 86.9 146.3 113.4 134.1 121.9 C 135.2 121.7 136.29999999999998 121.4 137.4 121 C 152.3 114.8 154.6 86.4 142.70000000000002 57.4 C 130.7 28.5 108.9 10 94 16.2 z M 252.4 253.2 C 253.20000000000002 252.39999999999998 253.9 251.5 254.5 250.5 C 241.9 258.5 217 249.5 196.4 228.9 C 175.8 208.3 166.8 183.4 174.8 170.8 C 173.8 171.4 172.9 172.10000000000002 172.10000000000002 172.9 C 160.70000000000002 184.3 169.40000000000003 211.5 191.60000000000002 233.7 C 213.8 255.89999999999998 241 264.6 252.4 253.2 z M 46.9 47.7 C 46.1 48.5 45.4 49.400000000000006 44.8 50.400000000000006 C 57.4 42.400000000000006 82.3 51.400000000000006 102.9 72 C 123.50000000000001 92.6 132.5 117.5 124.5 130.1 C 125.5 129.5 126.4 128.79999999999998 127.2 128 C 138.6 116.6 129.9 89.4 107.7 67.2 C 85.5 45 58.3 36.3 46.9 47.7 z M 283.9 206 C 284.29999999999995 204.9 284.7 203.8 284.79999999999995 202.7 C 276.19999999999993 214.89999999999998 249.69999999999996 216.1 222.89999999999995 205 C 196.09999999999994 193.9 178.19999999999993 174.3 180.69999999999993 159.6 C 179.99999999999994 160.5 179.49999999999994 161.5 179.09999999999994 162.6 C 172.89999999999995 177.5 191.39999999999995 199.3 220.39999999999992 211.3 C 249.3999999999999 223.3 277.7 220.9 283.9 206 z M 15.4 94.8 C 15 95.89999999999999 14.6 97 14.5 98.1 C 23.1 85.89999999999999 49.6 84.69999999999999 76.4 95.8 C 103.20000000000002 106.9 121.10000000000001 126.5 118.60000000000001 141.2 C 119.30000000000001 140.29999999999998 119.80000000000001 139.29999999999998 120.2 138.2 C 126.4 123.29999999999998 107.9 101.49999999999999 78.9 89.49999999999999 C 49.900000000000006 77.49999999999999 21.6 79.9 15.4 94.8 z M 294.9 150.4 C 294.9 149.3 294.79999999999995 148.1 294.5 147 C 291.2 161.5 267.2 172.8 238.1 172.8 C 209 172.8 185 161.5 181.7 147 C 181.5 148.1 181.29999999999998 149.2 181.29999999999998 150.4 C 181.29999999999998 166.5 206.7 179.6 238 179.6 C 269.3 179.6 294.9 166.5 294.9 150.4 z M 4.3 150.4 C 4.3 151.5 4.3999999999999995 152.70000000000002 4.7 153.8 C 8 139.3 32 128 61.1 128 C 90.2 128 114.2 139.3 117.5 153.8 C 117.7 152.70000000000002 117.9 151.60000000000002 117.9 150.4 C 117.9 134.3 92.5 121.2 61.2 121.2 C 29.900000000000006 121.2 4.3 134.3 4.3 150.4 z M 283.9 94.8 C 283.5 93.7 282.9 92.7 282.29999999999995 91.8 C 284.79999999999995 106.5 266.99999999999994 126.1 240.09999999999997 137.2 C 213.2 148.29999999999998 186.69999999999996 147.1 178.19999999999996 134.89999999999998 C 178.39999999999995 135.99999999999997 178.69999999999996 137.09999999999997 179.09999999999997 138.2 C 185.29999999999995 153.1 213.69999999999996 155.39999999999998 242.69999999999996 143.5 C 271.6 131.5 290.1 109.7 283.9 94.8 z M 15.4 206 C 15.8 207.1 16.4 208.1 17 209 C 14.5 194.3 32.3 174.7 59.2 163.6 C 86.10000000000001 152.5 112.6 153.7 121.1 165.9 C 120.89999999999999 164.8 120.6 163.70000000000002 120.19999999999999 162.6 C 113.99999999999999 147.7 85.6 145.4 56.59999999999999 157.29999999999998 C 27.59999999999998 169.19999999999996 9.2 191.1 15.4 206 z M 252.4 47.7 C 251.6 46.900000000000006 250.70000000000002 46.2 249.70000000000002 45.6 C 257.70000000000005 58.2 248.70000000000002 83.1 228.10000000000002 103.7 C 207.50000000000003 124.30000000000001 182.60000000000002 133.3 170.00000000000003 125.30000000000001 C 170.60000000000002 126.30000000000001 171.30000000000004 127.20000000000002 172.10000000000002 128 C 183.50000000000003 139.4 210.70000000000002 130.7 232.90000000000003 108.5 C 255.10000000000005 86.30000000000001 263.8 59.1 252.4 47.7 z M 46.9 253.2 C 47.699999999999996 254 48.6 254.7 49.6 255.29999999999998 C 41.6 242.7 50.6 217.79999999999998 71.2 197.2 C 91.80000000000001 176.6 116.7 167.6 129.3 175.6 C 128.70000000000002 174.6 128 173.7 127.20000000000002 172.9 C 115.80000000000001 161.5 88.60000000000002 170.20000000000002 66.40000000000002 192.4 C 44.20000000000002 214.6 35.5 241.8 46.9 253.2 z M 205.2 16.2 C 204.1 15.799999999999999 203 15.399999999999999 201.89999999999998 15.299999999999999 C 214.09999999999997 23.9 215.29999999999998 50.4 204.2 77.2 C 193.1 104 173.5 121.9 158.79999999999998 119.4 C 159.7 120.10000000000001 160.7 120.60000000000001 161.79999999999998 121 C 176.7 127.2 198.5 108.7 210.5 79.7 C 222.5 50.8 220.1 22.3 205.2 16.2 z M 137.5 179.8 C 136.8 179.5 136 179.3 135.3 179.10000000000002 C 135 179.00000000000003 134.8 179.00000000000003 134.5 178.90000000000003 C 134.2 178.90000000000003 134 178.80000000000004 133.7 178.80000000000004 C 133.39999999999998 178.70000000000005 133 178.70000000000005 132.7 178.70000000000005 C 132.6 178.70000000000005 132.5 178.70000000000005 132.39999999999998 178.70000000000005 C 132.29999999999998 178.70000000000005 132.09999999999997 178.70000000000005 131.99999999999997 178.70000000000005 L 131.89999999999998 178.70000000000005 C 131.7 178.70000000000005 131.59999999999997 178.70000000000005 131.39999999999998 178.70000000000005 C 131.2 178.70000000000005 130.99999999999997 178.70000000000005 130.79999999999998 178.70000000000005 C 130.7 178.70000000000005 130.49999999999997 178.70000000000005 130.39999999999998 178.70000000000005 C 130.29999999999998 178.70000000000005 130.2 178.70000000000005 130.2 178.70000000000005 C 130 178.70000000000005 129.79999999999998 178.70000000000005 129.6 178.80000000000004 C 129.5 178.80000000000004 129.4 178.80000000000004 129.29999999999998 178.80000000000004 C 129.2 178.80000000000004 128.99999999999997 178.80000000000004 128.89999999999998 178.90000000000003 C 128.7 178.90000000000003 128.49999999999997 179.00000000000003 128.39999999999998 179.00000000000003 L 128.39999999999998 179.00000000000003 C 128.29999999999998 179.00000000000003 128.2 179.00000000000003 128.2 179.00000000000003 L 128.2 179.00000000000003 C 127.99999999999999 179.00000000000003 127.79999999999998 179.10000000000002 127.6 179.10000000000002 C 127.39999999999999 179.10000000000002 127.19999999999999 179.20000000000002 127 179.20000000000002 C 126.6 179.3 126.2 179.4 125.9 179.50000000000003 C 125.30000000000001 179.70000000000002 124.80000000000001 179.80000000000004 124.2 180.10000000000002 C 123.60000000000001 180.3 123 180.50000000000003 122.5 180.8 C 122.3 180.9 122.1 181 122 181 C 121.6 181.2 121.3 181.3 120.9 181.5 C 120.7 181.6 120.5 181.7 120.4 181.8 C 120.2 181.9 120 182 119.9 182.10000000000002 C 119.5 182.3 119.2 182.50000000000003 118.80000000000001 182.70000000000002 C 118.60000000000001 182.8 118.4 182.9 118.30000000000001 183.00000000000003 C 117.80000000000001 183.30000000000004 117.30000000000001 183.60000000000002 116.9 183.90000000000003 C 116.60000000000001 184.10000000000002 116.2 184.40000000000003 115.9 184.60000000000002 C 115.60000000000001 184.8 115.30000000000001 185.00000000000003 115 185.20000000000002 C 114.6 185.50000000000003 114.2 185.8 113.7 186.20000000000002 C 113.10000000000001 186.70000000000002 112.4 187.20000000000002 111.8 187.8 C 111.6 188 111.3 188.20000000000002 111.1 188.4 C 110.39999999999999 189 109.69999999999999 189.70000000000002 109 190.4 C 107.8 191.6 106.6 192.8 105.5 194.1 C 105 194.6 104.6 195.2 104.1 195.7 C 103.89999999999999 196 103.6 196.29999999999998 103.39999999999999 196.5 C 102.99999999999999 197.1 102.49999999999999 197.6 102.1 198.2 C 101.69999999999999 198.79999999999998 101.19999999999999 199.39999999999998 100.8 200 C 100.39999999999999 200.6 99.89999999999999 201.2 99.5 201.8 C 98.9 202.70000000000002 98.2 203.70000000000002 97.6 204.70000000000002 L 97.6 204.70000000000002 C 97.19999999999999 205.4 96.8 206.00000000000003 96.39999999999999 206.70000000000002 C 96.19999999999999 207.00000000000003 95.99999999999999 207.4 95.8 207.70000000000002 C 95.6 208.10000000000002 95.3 208.50000000000003 95.1 208.9 C 94.89999999999999 209.20000000000002 94.8 209.5 94.6 209.70000000000002 C 94.39999999999999 210.10000000000002 94.19999999999999 210.4 94 210.8 L 94 210.8 C 93.6 211.5 93.2 212.20000000000002 92.9 213 C 92.9 213 92.9 213 92.9 213 C 92.5 213.7 92.2 214.5 91.80000000000001 215.2 C 91.60000000000001 215.6 91.4 215.89999999999998 91.30000000000001 216.29999999999998 C 91.10000000000001 216.7 90.9 217.1 90.80000000000001 217.39999999999998 C 90.30000000000001 218.49999999999997 89.80000000000001 219.7 89.30000000000001 220.89999999999998 C 88.9 221.89999999999998 88.50000000000001 222.89999999999998 88.10000000000001 223.99999999999997 C 87.80000000000001 224.69999999999996 87.60000000000001 225.39999999999998 87.4 225.99999999999997 C 86.7 227.99999999999997 86 230.09999999999997 85.4 232.09999999999997 C 85.30000000000001 232.39999999999998 85.2 232.79999999999995 85.10000000000001 233.09999999999997 C 84.9 233.79999999999995 84.7 234.39999999999998 84.60000000000001 235.09999999999997 C 84.4 235.79999999999995 84.30000000000001 236.39999999999998 84.10000000000001 237.09999999999997 C 84.00000000000001 237.49999999999997 83.9 237.89999999999998 83.80000000000001 238.19999999999996 C 83.60000000000001 238.89999999999995 83.50000000000001 239.69999999999996 83.30000000000001 240.39999999999995 C 83.30000000000001 240.39999999999995 83.30000000000001 240.39999999999995 83.30000000000001 240.39999999999995 C 82.9 242.19999999999996 82.60000000000001 244.09999999999994 82.4 245.89999999999995 C 82.4 245.89999999999995 82.4 245.89999999999995 82.4 245.89999999999995 C 82.30000000000001 246.59999999999994 82.2 247.29999999999995 82.10000000000001 247.99999999999994 C 81.2 255.69999999999993 81.60000000000001 262.79999999999995 83.00000000000001 268.69999999999993 C 83.10000000000001 268.99999999999994 83.10000000000001 269.19999999999993 83.20000000000002 269.49999999999994 C 83.30000000000001 269.8999999999999 83.40000000000002 270.3999999999999 83.60000000000002 270.79999999999995 C 83.70000000000002 271.09999999999997 83.80000000000003 271.29999999999995 83.80000000000003 271.49999999999994 C 83.90000000000002 271.69999999999993 84.00000000000003 271.99999999999994 84.10000000000002 272.19999999999993 C 84.10000000000002 272.29999999999995 84.20000000000002 272.3999999999999 84.20000000000002 272.49999999999994 C 84.40000000000002 272.8999999999999 84.50000000000001 273.3999999999999 84.70000000000002 273.79999999999995 C 85.00000000000001 274.59999999999997 85.40000000000002 275.29999999999995 85.80000000000001 275.99999999999994 C 85.9 276.19999999999993 86.00000000000001 276.49999999999994 86.20000000000002 276.69999999999993 C 86.50000000000001 277.29999999999995 86.90000000000002 277.8999999999999 87.30000000000001 278.3999999999999 C 87.60000000000001 278.7999999999999 87.80000000000001 279.0999999999999 88.10000000000001 279.49999999999994 C 89.9 281.69999999999993 92.10000000000001 283.3999999999999 94.60000000000001 284.3999999999999 C 94.7 284.49999999999994 94.9 284.49999999999994 95.00000000000001 284.5999999999999 C 95.10000000000001 284.5999999999999 95.30000000000001 284.69999999999993 95.40000000000002 284.69999999999993 C 95.90000000000002 284.8999999999999 96.40000000000002 284.99999999999994 96.90000000000002 285.0999999999999 C 97.00000000000001 285.0999999999999 97.10000000000002 285.19999999999993 97.20000000000002 285.19999999999993 C 97.30000000000001 285.19999999999993 97.40000000000002 285.29999999999995 97.60000000000002 285.29999999999995 C 97.70000000000002 285.29999999999995 97.80000000000003 285.29999999999995 97.90000000000002 285.4 C 85.70000000000002 276.79999999999995 84.50000000000001 250.29999999999998 95.60000000000002 223.49999999999997 C 106.70000000000002 196.59999999999997 126.30000000000003 178.79999999999995 141.00000000000003 181.29999999999995 C 139.5 180.8 138.5 180.2 137.5 179.8 z" stroke-linecap="round" />
</g>
</g>
</g>
<g transform="matrix(1.9211538461538462 0 0 1.9211538461538462 640.3265961538458 657.4301425853159)" id="text-logo"  >
<g style=""  paint-order="stroke"   >
		<g transform="matrix(1 0 0 1 0 0)" id="text-logo-path-0"  >
<path style="stroke: none; stroke-width: 0; stroke-dasharray: none; stroke-linecap: butt; stroke-dashoffset: 0; stroke-linejoin: miter; stroke-miterlimit: 4; fill: rgb(255,233,247); fill-rule: nonzero; opacity: 1;"  paint-order="stroke"  transform=" translate(-280.71999999999997, 14)" d="M 6.44 0 L 8.6 -5.6 L 21.16 -5.6 L 23.32 0 L 28.44 0 L 17.64 -28 L 12.12 -28 L 1.32 0 Z M 10.44 -10.4 L 14.88 -21.88 L 19.32 -10.4 Z M 43.28 0 L 43.28 -7.36 L 47.4 -11.76 L 58.4 0 L 64.56 0 L 50.48 -15.08 L 62.56 -28 L 56.4 -28 L 43.28 -13.96 L 43.28 -28 L 38.48 -28 L 38.48 0 Z M 79.4 0 L 79.4 -9.6 L 86.44 -9.6 L 91.84 0 L 97.36 0 L 91.68 -10.12 C 95.16 -11.2 97.04 -14.08 97.04 -18.8 C 97.04 -24.76 94.08 -28 87.84 -28 L 74.6 -28 L 74.6 0 Z M 79.4 -14.4 L 79.4 -23.2 L 87.84 -23.2 C 91.28 -23.2 92.24 -22.2 92.24 -18.8 C 92.24 -15.36 91.24 -14.4 87.84 -14.4 Z M 121.44 -4.4 C 114.12 -4.4 112.2 -6.36 112.2 -14 C 112.2 -21.68 114.16 -23.6 121.44 -23.6 C 128.72 -23.6 130.64 -21.64 130.64 -14 C 130.64 -6.32 128.68 -4.4 121.44 -4.4 Z M 121.44 0.4 C 131.32 0.4 135.44 -3.56 135.44 -14 C 135.44 -24.32 131.44 -28.4 121.44 -28.4 C 111.52 -28.4 107.4 -24.44 107.4 -14 C 107.4 -3.72 111.4 0.4 121.44 0.4 Z M 145.48 0 L 166.28 0 L 166.28 -4.8 L 150.28 -4.8 L 150.28 -28 L 145.48 -28 Z M 181.12 0 L 181.12 -28 L 176.32 -28 L 176.32 0 Z M 195.96 0 L 195.96 -21.32 L 210.28 0 L 216.36 0 L 216.36 -28 L 211.56 -28 L 211.56 -6.68 L 197.24 -28 L 191.16 -28 L 191.16 0 Z M 231.2 0 L 231.2 -7.36 L 235.32 -11.76 L 246.32 0 L 252.48 0 L 238.4 -15.08 L 250.48 -28 L 244.32 -28 L 231.2 -13.96 L 231.2 -28 L 226.4 -28 L 226.4 0 Z M 296.4 -20 L 301.2 -20 C 301.2 -26 298.2 -28.4 290.04 -28.4 C 280.32 -28.4 277.92 -25 277.92 -19.36 C 277.92 -15.76 280.36 -12.04 285.52 -11.8 L 294.28 -11.44 C 296.8 -11.32 297.32 -10.76 297.32 -8.64 C 297.32 -5.36 296.36 -4.4 290 -4.4 C 283.44 -4.4 282.72 -5.04 282.72 -8.64 L 277.92 -8.64 C 277.92 -2.4 280.48 0.4 290 0.4 C 299.24 0.4 302.12 -2.64 302.12 -8.64 C 302.12 -13.6 299.28 -16.04 294.52 -16.24 L 285.76 -16.6 C 283.64 -16.68 282.72 -17.92 282.72 -19.36 C 282.72 -22.68 283.6 -23.6 290.04 -23.6 C 295.64 -23.6 296.4 -23.04 296.4 -20 Z M 326.2 -4.4 C 318.88 -4.4 316.96 -6.36 316.96 -14 C 316.96 -21.68 318.92 -23.6 326.2 -23.6 C 333.48 -23.6 335.4 -21.64 335.4 -14 C 335.4 -6.32 333.44 -4.4 326.2 -4.4 Z M 326.2 0.4 C 336.08 0.4 340.2 -3.56 340.2 -14 C 340.2 -24.32 336.2 -28.4 326.2 -28.4 C 316.28 -28.4 312.16 -24.44 312.16 -14 C 312.16 -3.72 316.16 0.4 326.2 0.4 Z M 350.24 0 L 371.04 0 L 371.04 -4.8 L 355.04 -4.8 L 355.04 -28 L 350.24 -28 Z M 400.48 -28 L 400.48 -12 C 400.48 -5.92 398.92 -4.4 393.16 -4.4 C 387.36 -4.4 385.88 -6 385.88 -12 L 385.88 -28 L 381.08 -28 L 381.08 -12 C 381.08 -3.44 384.48 0.4 393.16 0.4 C 401.56 0.4 405.28 -3.16 405.28 -12 L 405.28 -28 Z M 428.92 0 L 428.92 -23.2 L 437.72 -23.2 L 437.72 -28 L 415.32 -28 L 415.32 -23.2 L 424.12 -23.2 L 424.12 0 Z M 452.56 0 L 452.56 -28 L 447.76 -28 L 447.76 0 Z M 476.64 -4.4 C 469.32 -4.4 467.4 -6.36 467.4 -14 C 467.4 -21.68 469.36 -23.6 476.64 -23.6 C 483.92 -23.6 485.84 -21.64 485.84 -14 C 485.84 -6.32 483.88 -4.4 476.64 -4.4 Z M 476.64 0.4 C 486.52 0.4 490.64 -3.56 490.64 -14 C 490.64 -24.32 486.64 -28.4 476.64 -28.4 C 466.72 -28.4 462.6 -24.44 462.6 -14 C 462.6 -3.72 466.6 0.4 476.64 0.4 Z M 505.48 0 L 505.48 -21.32 L 519.8 0 L 525.88 0 L 525.88 -28 L 521.08 -28 L 521.08 -6.68 L 506.76 -28 L 500.68 -28 L 500.68 0 Z M 554.4 -20 L 559.2 -20 C 559.2 -26 556.2 -28.4 548.04 -28.4 C 538.32 -28.4 535.92 -25 535.92 -19.36 C 535.92 -15.76 538.36 -12.04 543.52 -11.8 L 552.28 -11.44 C 554.8 -11.32 555.32 -10.76 555.32 -8.64 C 555.32 -5.36 554.36 -4.4 548 -4.4 C 541.44 -4.4 540.72 -5.04 540.72 -8.64 L 535.92 -8.64 C 535.92 -2.4 538.48 0.4 548 0.4 C 557.24 0.4 560.12 -2.64 560.12 -8.64 C 560.12 -13.6 557.28 -16.04 552.52 -16.24 L 543.76 -16.6 C 541.64 -16.68 540.72 -17.92 540.72 -19.36 C 540.72 -22.68 541.6 -23.6 548.04 -23.6 C 553.64 -23.6 554.4 -23.04 554.4 -20 Z" stroke-linecap="round" />
</g>
</g>
</g>
</svg>